/* XPM */
static char * closeI_xpm[] = {
"24 54 24 1",
" 	c #D5C4A1",
".	c #736B5C",
"+	c #8A806C",
"@	c #CCBD9C",
"#	c #CEBD9C",
"$	c #8B816D",
"%	c #847A67",
"&	c #857B68",
"*	c #CDBD9B",
"=	c #857C69",
"-	c #827967",
";	c #CBBA99",
">	c #817866",
",	c #847B68",
"'	c #807764",
")	c #C8B899",
"!	c #7E7564",
"~	c #C8B898",
"{	c #CDBC9B",
"]	c #827866",
"^	c #CBBB9A",
"/	c #CCBC9B",
"(	c #837968",
"_	c #867C69",
"                        ",
"                        ",
"                        ",
"                        ",
"                        ",
"                        ",
"                        ",
"                        ",
"                        ",
"                        ",
"        .+@  #$.        ",
"        %.&@*=.-        ",
"        ;>.&,.')        ",
"         ;>..!~         ",
"         {&..]^         ",
"        /(.--.-/        ",
"        _.-//-.=        ",
"        .=/  /=.        ",
"                        ",
"                        ",
"                        ",
"                        ",
"                        ",
"                        ",
"                        ",
"                        ",
"                        ",
"                        ",
"                        ",
"                        ",
"                        ",
"                        ",
"                        ",
"                        ",
"                        ",
"                        ",
"                        ",
"        .+@  #$.        ",
"        %.&@*=.-        ",
"        ;>.&,.')        ",
"         ;>..!~         ",
"         {&..]^         ",
"        /(.--.-/        ",
"        _.-//-.=        ",
"        .=/  /=.        ",
"                        ",
"                        ",
"                        ",
"                        ",
"                        ",
"                        ",
"                        ",
"                        ",
"                        "};
