/* XPM */
static char * closeO_xpm[] = {
"24 54 22 1",
" 	c #BDAE93",
".	c #83A598",
"+	c #90A797",
"@	c #B8AE94",
"#	c #B9AD93",
"$	c #91A897",
"%	c #8DA697",
"&	c #8DA797",
"*	c #B8AD93",
"=	c #8EA797",
"-	c #8CA697",
";	c #B6AD94",
">	c #8CA798",
",	c #8DA698",
"'	c #8BA697",
")	c #B5AD94",
"!	c #8AA697",
"~	c #B5AD93",
"{	c #B7AD93",
"]	c #B7AE93",
"^	c #8CA797",
"/	c #8EA697",
"                        ",
"                        ",
"                        ",
"                        ",
"                        ",
"                        ",
"                        ",
"                        ",
"                        ",
"                        ",
"        .+@  #$.        ",
"        %.&@*=.-        ",
"        ;>.&,.')        ",
"         ;>..!~         ",
"         *&..'{         ",
"        ]^.--.-]        ",
"        /.-]]-.=        ",
"        .=]  ]=.        ",
"                        ",
"                        ",
"                        ",
"                        ",
"                        ",
"                        ",
"                        ",
"                        ",
"                        ",
"                        ",
"                        ",
"                        ",
"                        ",
"                        ",
"                        ",
"                        ",
"                        ",
"                        ",
"                        ",
"        .+@  #$.        ",
"        %.&@*=.-        ",
"        ;>.&,.')        ",
"         ;>..!~         ",
"         *&..'{         ",
"        ]^.--.-]        ",
"        /.-]]-.=        ",
"        .=]  ]=.        ",
"                        ",
"                        ",
"                        ",
"                        ",
"                        ",
"                        ",
"                        ",
"                        ",
"                        "};
