/* XPM */
static char * menuButtonA_xpm[] = {
"24 54 2 1",
" 	c #BDAE93",
".	c #3C3836",
"                        ",
"                        ",
"                        ",
"                        ",
"                        ",
"                        ",
"                        ",
"                        ",
"       ..........       ",
"       ..........       ",
"                        ",
"                        ",
"       ..........       ",
"       ..........       ",
"                        ",
"                        ",
"       ..........       ",
"       ..........       ",
"                        ",
"                        ",
"                        ",
"                        ",
"                        ",
"                        ",
"                        ",
"                        ",
"                        ",
"                        ",
"                        ",
"                        ",
"                        ",
"                        ",
"                        ",
"                        ",
"                        ",
"       ..........       ",
"       ..........       ",
"                        ",
"                        ",
"       ..........       ",
"       ..........       ",
"                        ",
"                        ",
"       ..........       ",
"       ..........       ",
"                        ",
"                        ",
"                        ",
"                        ",
"                        ",
"                        ",
"                        ",
"                        ",
"                        "};
