/* XPM */
static char * icewm_xpm[] = {
"90 36 56 1",
" 	c None",
".	c #F9548F",
"+	c #F9558F",
"@	c #F95590",
"#	c #F9538F",
"$	c #F9518E",
"%	c #F94F8D",
"&	c #F9528E",
"*	c #F96B99",
"=	c #FA8EAD",
"-	c #FB9DB7",
";	c #F94E8D",
">	c #FA8CAC",
",	c #FCC9D6",
"'	c #FDE2E9",
")	c #FEE3E9",
"!	c #F96999",
"~	c #FBB2C5",
"{	c #FDD3DD",
"]	c #FDE3E9",
"^	c #FB9AB5",
"/	c #F96C9A",
"(	c #FBB4C6",
"_	c #FB9CB6",
":	c #F94D8C",
"<	c #FEEBF0",
"[	c #FFF9FA",
"}	c #FB9BB6",
"|	c #F96898",
"1	c #FCBFCE",
"2	c #FEECF0",
"3	c #F96D9B",
"4	c #F9538E",
"5	c #F8508D",
"6	c #F84E8C",
"7	c #F9508D",
"8	c #FDE2E8",
"9	c #F84F8D",
"0	c #F94B8B",
"a	c #FA8DAD",
"b	c #FBC9D5",
"c	c #FBD3DC",
"d	c #FBB3C6",
"e	c #F86A99",
"f	c #F68CAB",
"g	c #F7B0C3",
"h	c #FCBECD",
"i	c #F96A99",
"j	c #F7508D",
"k	c #F5518C",
"l	c #F8518E",
"m	c #F74D8B",
"n	c #FFFAFB",
"o	c #FBB1C4",
"p	c #F96D9A",
"q	c #F8548E",
"                                                                                          ",
"                                                                                          ",
"                                        .....+@@+...                                      ",
"                                        ......@@....                                      ",
"                                    ................++..                                  ",
"                                    .....#$%%%%%%$#.++..                                  ",
"                                  ........................                                ",
"                                  .....&$*=------=*%;$#...                                ",
"                                .......$.>,')'')',>.$.......                              ",
"                                .....&$!=~{']'']'{~-^>/.#...                              ",
"                                .....$.=,{(-_--_-~{)],>.$...                              ",
"                                ...#.*>~{,=#:$#$.>,<['}.%...                              ",
"                              .....$.=,{(=!%;%%;%|=12)-.%.....                            ",
"                              .....%.-''-#%3>>3.4%.-''-.%.....                            ",
"                              .....%.-)]_:;=,,=.567}8'-.%.....                            ",
"                              .....%.-''-%%-''-.967_])-.%.....                            ",
"                              .....%.-''-%%-))-.%%.-''-.%.....                            ",
"                              .....%.-''-%%-))_;0!=({,=.$.....                            ",
"                              .....%.-''-%%-''-$%=,{~>*.#.....                            ",
"                              .....%.-'8}:;abcd__({,=.$.......                            ",
"                              .....%.-''-#%efgc]){~=!$&.......                            ",
"                              .....%.-)<h>ijkfb)),>.$.........                            ",
"                              .....%.}'[<,>lmea--=*$&.........                            ",
"                              .....$.>,2n]^%0$#...............                            ",
"                                ...#.i>h<)-.%#$%%$#.........                              ",
"                                .....$.=,{(-_=3.#...........                              ",
"                                .....&$|>o{)],>.$...........                              ",
"                                .......$.>,)),>.$...........                              ",
"                                  .....&$*=--=pq4.........                                ",
"                                  ............qq..........                                ",
"                                    .....#$%%$4.........                                  ",
"                                    ....................                                  ",
"                                        ............                                      ",
"                                        ............                                      ",
"                                                                                          ",
"                                                                                          "};
